<?xml version="1.0" standalone="no"?>
<!DOCTYPE svg PUBLIC "-//W3C//DTD SVG 20010904//EN"
 "http://www.w3.org/TR/2001/REC-SVG-20010904/DTD/svg10.dtd">
<svg version="1.0" xmlns="http://www.w3.org/2000/svg"
 width="2000.000000pt" height="2000.000000pt" viewBox="0 0 2000.000000 2000.000000"
 preserveAspectRatio="xMidYMid meet">
<metadata>
Created by potrace 1.14, written by Peter Selinger 2001-2017
</metadata>
<g transform="translate(0.000000,2000.000000) scale(0.100000,-0.100000)"
fill="#000000" stroke="none">
<path d="M9520 19123 c-1501 -90 -2861 -497 -4125 -1235 -178 -104 -197 -116
-449 -283 -399 -265 -767 -552 -1106 -863 -148 -137 -458 -446 -587 -587
-1103 -1208 -1871 -2714 -2197 -4305 -120 -590 -173 -1080 -183 -1700 -10
-641 29 -1136 138 -1765 249 -1428 869 -2824 1763 -3970 279 -358 438 -538
771 -871 282 -282 487 -468 740 -669 83 -65 168 -133 190 -150 238 -189 686
-484 1048 -689 172 -98 571 -302 692 -354 28 -11 97 -42 155 -67 464 -205
1042 -396 1555 -514 1408 -326 2890 -316 4280 30 497 124 916 265 1435 484
310 130 861 419 1168 611 101 64 118 75 262 170 967 636 1885 1553 2532 2529
154 234 255 398 385 630 94 168 121 220 206 390 740 1482 1058 3175 912 4855
-139 1597 -700 3137 -1615 4435 -157 223 -352 482 -380 505 -3 3 -21 25 -40
50 -28 37 -125 152 -165 196 -5 6 -39 44 -75 85 -264 299 -654 677 -970 940
-49 41 -105 86 -291 234 -168 133 -519 375 -774 532 -1274 787 -2699 1241
-4195 1338 -211 13 -901 19 -1080 8z m4277 -5567 c78 -21 138 -53 173 -92 127
-145 149 -417 79 -994 -63 -528 -362 -2472 -615 -4010 -126 -764 -294 -1781
-310 -1870 -54 -311 -185 -569 -347 -683 -88 -63 -132 -83 -220 -101 -177 -37
-358 -8 -600 95 -140 60 -224 115 -747 488 -184 131 -485 343 -1008 710 -42
30 -261 185 -487 344 -225 160 -457 323 -515 363 -132 92 -212 162 -267 237
-47 65 -83 165 -83 232 0 99 64 229 177 361 26 31 172 173 323 317 151 143
307 290 345 327 39 36 194 183 345 325 151 142 309 291 350 329 41 39 113 107
159 151 47 44 135 127 196 185 109 105 150 144 480 455 422 398 452 428 561
560 60 73 122 176 145 239 77 221 -92 264 -426 110 -105 -48 -213 -116 -507
-315 -159 -107 -440 -297 -625 -422 -186 -126 -414 -280 -508 -343 -93 -64
-312 -211 -485 -329 -173 -117 -472 -320 -665 -450 -192 -130 -440 -297 -550
-372 -428 -290 -493 -332 -590 -380 -115 -58 -242 -103 -365 -129 -121 -27
-472 -27 -615 0 -115 21 -295 66 -375 95 -30 10 -127 44 -215 76 -200 70 -488
172 -755 265 -241 84 -386 151 -454 211 -48 43 -85 105 -86 144 0 75 63 160
187 252 70 52 280 166 398 216 33 15 170 73 305 130 243 104 513 222 830 362
226 100 240 106 450 200 102 46 208 93 235 105 28 12 75 34 105 47 30 14 174
79 320 145 513 232 666 301 730 330 130 60 690 313 875 395 105 47 235 106
290 130 102 46 144 65 435 193 447 197 935 406 1340 575 74 31 160 67 190 80
251 107 884 351 1185 456 650 228 1021 306 1212 255z"/>
</g>
</svg>
